<svg viewBox="-10 0 512 512.00032" xmlns="http://www.w3.org/2000/svg"><path d="m310.058594 457.515625c-15.84375 16.214844-34.695313 29.453125-55.644532 38.808594-22.59375 10.0625-47.539062 15.675781-73.757812 15.675781-49.976562 0-95.246094-20.269531-128.015625-53.007812-26.109375-26.140626-44.277344-60.183594-50.601563-98.253907-.085937-.59375-.140624-1.1875-.140624-1.8125 0-5.554687 4.507812-10.0625 10.0625-10.0625 4.988281 0 9.15625 3.683594 9.921874 8.476563 5.582032 33.871094 21.742188 64.175781 44.984376 87.421875 29.113281 29.109375 69.367187 47.140625 113.785156 47.140625 23.414062 0 45.609375-4.960938 65.566406-13.890625 18.058594-8.050781 34.328125-19.332031 48.105469-33.082031-3.230469-4.988282-5.101563-10.914063-5.101563-17.261719v-46.347657h-46.347656c-8.761719 0-16.726562-3.574218-22.480469-9.328124-5.753906-5.78125-9.355469-13.71875-9.355469-22.507813v-61.199219c0-8.761718 3.601563-16.726562 9.355469-22.480468 5.753907-5.753907 13.71875-9.355469 22.480469-9.355469h46.347656v-46.347657c0-8.164062 3.117188-15.644531 8.21875-21.289062-14-25.824219-30.839844-52.1875-49.664062-78.546875-20.40625-28.578125-43.113282-57.09375-67.125-84.957031-47.28125 54.878906-89.492188 112.226562-118.859375 167.332031-16.1875 30.417969-28.460938 60.125-35.460938 88.300781-.085937.425782-.171875.878906-.3125 1.304688v.027344h-.023437c-1.304688 4.054687-5.074219 6.972656-9.554688 6.972656-5.558594 0-10.0625-4.503906-10.0625-10.0625 0-1.074219.167969-2.125.480469-3.117188 7.457031-29.820312 20.324219-61.03125 37.277344-92.835937 31.691406-59.53125 77.753906-121.269531 128.980469-179.808594 4.023437-4.621094 11.222656-4.535156 15.164062.085937 27.214844 31.097657 52.953125 63.101563 75.828125 95.105469 19.132813 26.816407 36.34375 53.71875 50.769531 80.277344 1.984375-.394531 4.054688-.59375 6.179688-.59375h61.203125c8.757812 0 16.726562 3.570313 22.476562 9.324219 5.757813 5.785156 9.355469 13.722656 9.355469 22.480468v46.347657h46.347656c8.757813 0 16.695313 3.601562 22.480469 9.355469 5.753906 5.753906 9.324219 13.71875 9.324219 22.480468v61.199219c0 8.789063-3.570313 16.726563-9.324219 22.507813-5.785156 5.753906-13.722656 9.328124-22.480469 9.328124h-46.347656v46.347657c0 8.757812-3.601562 16.722656-9.355469 22.476562-5.753906 5.757813-13.71875 9.355469-22.476562 9.355469h-61.203125c-3.882813 0-7.566406-.707031-11-1.984375zm-310.058594-138.617187c0-5.554688 4.507812-10.0625 10.0625-10.0625 5.558594 0 10.066406 4.507812 10.066406 10.0625 0 5.554687-4.507812 10.0625-10.066406 10.0625-5.554688.003906-10.0625-4.507813-10.0625-10.0625zm382.261719-120.503907h-61.203125c-3.230469 0-6.148438 1.332031-8.277344 3.460938-2.125 2.125-3.429688 5.042969-3.429688 8.246093v56.410157c0 5.558593-4.507812 10.066406-10.0625 10.066406h-56.410156c-3.203125 0-6.125 1.332031-8.25 3.457031s-3.457031 5.046875-3.457031 8.25v61.199219c0 3.230469 1.332031 6.152344 3.457031 8.277344 2.125 2.128906 5.046875 3.429687 8.25 3.429687h56.410156c5.554688 0 10.0625 4.507813 10.0625 10.066406v56.40625c0 3.203126 1.304688 6.125 3.429688 8.25 2.128906 2.125 5.046875 3.457032 8.277344 3.457032h61.203125c3.203125 0 6.121093-1.332032 8.25-3.457032 2.125-2.125 3.457031-5.046874 3.457031-8.25v-56.40625c0-5.558593 4.507812-10.066406 10.0625-10.066406h56.410156c3.203125 0 6.121094-1.300781 8.25-3.429687 2.125-2.125 3.457032-5.046875 3.457032-8.277344v-61.199219c0-3.203125-1.332032-6.125-3.457032-8.25-2.128906-2.125-5.046875-3.457031-8.25-3.457031h-56.410156c-5.558594 0-10.0625-4.507813-10.0625-10.066406v-56.410157c0-3.203124-1.332031-6.121093-3.457031-8.246093-2.128907-2.128907-5.046875-3.460938-8.25-3.460938zm0 0"/></svg>